<?xml version="1.0" encoding="utf-8"?>
<svg version="1.1"  xmlns="http://www.w3.org/2000/svg" xmlns:xlink="http://www.w3.org/1999/xlink" x="0px" y="0px"
	 width="194.3px" height="65.4px" viewBox="-382 248.6 194.3 65.4" style="enable-background:new -382 248.6 194.3 65.4;"
	 xml:space="preserve">

<g>
	<g>
		<path fill="#000000" d="M-367.3,275.3c-0.9,0.6-1.9,0.8-3.1,0.8c-0.8,0-1.5-0.1-2.2-0.5c-0.7-0.3-1.3-0.7-1.8-1.3c-0.5-0.5-0.9-1.2-1.2-2
			c-0.3-0.8-0.4-1.6-0.4-2.6c0-1,0.1-1.8,0.4-2.6c0.3-0.8,0.7-1.4,1.2-2c0.5-0.5,1.1-1,1.8-1.3c0.7-0.3,1.4-0.5,2.2-0.5
			c1.2,0,2.2,0.3,3,0.8c0.8,0.5,1.4,1.3,2,2.3l5.4-2.3c-0.8-1.9-2.1-3.4-3.8-4.5c-1.7-1.2-3.9-1.8-6.4-1.8c-1.7,0-3.3,0.3-4.7,0.9
			c-1.4,0.6-2.7,1.4-3.7,2.4c-1,1-1.8,2.3-2.4,3.7s-0.9,3-0.9,4.7c0,1.7,0.3,3.3,0.9,4.7c0.6,1.4,1.4,2.7,2.4,3.7
			c1,1.1,2.3,1.9,3.7,2.5c1.4,0.6,3,0.9,4.7,0.9c2.6,0,4.7-0.6,6.5-1.8c1.7-1.2,3.1-2.7,4-4.6l-5.4-2.3
			C-365.7,273.9-366.4,274.7-367.3,275.3z M-344.2,258c-0.6,0-1.3,0.1-1.9,0.3c-0.6,0.2-1.2,0.5-1.8,0.8c-0.6,0.3-1.1,0.7-1.5,1.2
			s-0.8,0.9-1.1,1.5h-0.4v-3.1h-5.5v22h5.9V270c0-0.9,0.1-1.7,0.4-2.5c0.3-0.8,0.6-1.4,1.1-2c0.5-0.6,1-1,1.7-1.3
			c0.7-0.3,1.4-0.5,2.2-0.5c0.6,0,1.2,0.1,1.6,0.2c0.4,0.1,0.8,0.2,1.2,0.4l1.6-5.3c-0.4-0.3-0.9-0.5-1.4-0.6
			C-342.8,258.1-343.5,258-344.2,258z M-321.1,261.4c-0.9-1-2.1-1.8-3.5-2.4c-1.4-0.6-3-0.9-4.7-0.9c-1.7,0-3.2,0.3-4.6,0.9
			c-1.4,0.6-2.6,1.5-3.6,2.5c-1,1.1-1.8,2.3-2.4,3.7c-0.6,1.4-0.9,2.9-0.9,4.5c0,1.7,0.3,3.3,0.9,4.7c0.6,1.4,1.4,2.7,2.5,3.7
			c1,1.1,2.3,1.9,3.7,2.5c1.4,0.6,3,0.9,4.7,0.9c2.5,0,4.6-0.6,6.3-1.7c1.7-1.1,3.1-2.6,4.1-4.4l-4.9-2.4c-0.5,0.9-1.2,1.7-2.1,2.3
			c-0.9,0.6-2,0.9-3.4,0.9c-0.7,0-1.4-0.1-2-0.3c-0.7-0.2-1.3-0.5-1.8-0.9c-0.6-0.4-1-1-1.4-1.6c-0.4-0.6-0.6-1.4-0.7-2.3h16.6
			c0-0.2,0-0.3,0-0.5c0-0.1,0-0.3,0-0.5c0-0.1,0-0.3,0-0.5c0-1.6-0.2-3.2-0.7-4.6C-319.4,263.6-320.1,262.4-321.1,261.4z
			 M-334.6,267c0.4-1.3,1.1-2.3,2-3c1-0.7,2.1-1.1,3.3-1.1c0.9,0,1.7,0.1,2.3,0.4c0.6,0.3,1.2,0.6,1.6,1c0.4,0.4,0.8,0.9,1,1.4
			c0.2,0.5,0.4,0.9,0.4,1.3H-334.6z M-298.2,258.3l0.4,3.2h-0.4c-0.5-0.9-1.4-1.7-2.5-2.4c-1.1-0.7-2.6-1-4.2-1
			c-1.4,0-2.8,0.3-4,0.9c-1.3,0.6-2.4,1.4-3.4,2.4c-1,1-1.7,2.3-2.3,3.7c-0.6,1.4-0.9,3-0.9,4.7c0,1.7,0.3,3.3,0.9,4.7
			c0.6,1.4,1.3,2.7,2.3,3.7c1,1,2.1,1.8,3.4,2.4c1.3,0.6,2.6,0.9,4,0.9c1.7,0,3.1-0.3,4.2-1c1.1-0.7,2-1.5,2.5-2.4h0.4v2.7h5.5
			v-32.2h-5.9V258.3z M-298.3,272.4c-0.3,0.8-0.8,1.4-1.3,2c-0.5,0.5-1.2,1-1.9,1.2c-0.7,0.3-1.4,0.4-2.2,0.4
			c-0.8,0-1.5-0.1-2.2-0.5c-0.7-0.3-1.3-0.7-1.9-1.3c-0.5-0.5-1-1.2-1.3-2c-0.3-0.8-0.5-1.6-0.5-2.6c0-1,0.2-1.8,0.5-2.6
			c0.3-0.8,0.8-1.4,1.3-2s1.2-1,1.9-1.3c0.7-0.3,1.4-0.5,2.2-0.5c0.8,0,1.5,0.1,2.2,0.4c0.7,0.3,1.3,0.7,1.9,1.2
			c0.5,0.5,1,1.2,1.3,2c0.3,0.8,0.5,1.7,0.5,2.7C-297.8,270.8-298,271.7-298.3,272.4z M-267.2,261.4c-1-1-2.1-1.8-3.4-2.4
			c-1.3-0.6-2.6-0.9-4-0.9c-1.7,0-3.1,0.3-4.2,1c-1.1,0.7-2,1.5-2.5,2.4h-0.4l0.4-3.2v-9.7h-5.9v32.2h5.5v-2.7h0.4
			c0.5,0.9,1.4,1.7,2.5,2.4c1.1,0.7,2.5,1,4.2,1c1.4,0,2.8-0.3,4-0.9c1.3-0.6,2.4-1.4,3.4-2.4c1-1,1.7-2.3,2.3-3.7
			c0.6-1.4,0.9-3,0.9-4.7c0-1.7-0.3-3.3-0.9-4.7C-265.4,263.6-266.2,262.4-267.2,261.4z M-270.4,272.4c-0.3,0.8-0.8,1.4-1.3,2
			c-0.5,0.5-1.2,1-1.9,1.3c-0.7,0.3-1.4,0.5-2.2,0.5c-0.8,0-1.5-0.1-2.2-0.4c-0.7-0.3-1.3-0.7-1.9-1.2c-0.5-0.5-1-1.2-1.3-2
			c-0.3-0.8-0.5-1.7-0.5-2.7c0-1,0.2-1.9,0.5-2.7c0.3-0.8,0.8-1.4,1.3-2c0.5-0.5,1.2-1,1.9-1.2c0.7-0.3,1.4-0.4,2.2-0.4
			c0.8,0,1.5,0.2,2.2,0.5c0.7,0.3,1.3,0.7,1.9,1.3c0.5,0.5,1,1.2,1.3,2c0.3,0.8,0.5,1.7,0.5,2.6
			C-269.9,270.7-270.1,271.6-270.4,272.4z M-241.4,261.4c-1-1-2.3-1.8-3.7-2.4c-1.4-0.6-3-0.9-4.7-0.9c-1.7,0-3.3,0.3-4.7,0.9
			c-1.4,0.6-2.7,1.4-3.7,2.4c-1,1-1.8,2.3-2.4,3.7c-0.6,1.4-0.9,3-0.9,4.7c0,1.7,0.3,3.3,0.9,4.7c0.6,1.4,1.4,2.7,2.4,3.7
			c1,1,2.3,1.8,3.7,2.4c1.4,0.6,3,0.9,4.7,0.9c1.7,0,3.3-0.3,4.7-0.9c1.4-0.6,2.7-1.4,3.7-2.4c1-1,1.8-2.3,2.4-3.7s0.9-3,0.9-4.7
			c0-1.7-0.3-3.3-0.9-4.7S-240.4,262.4-241.4,261.4z M-244.5,272.4c-0.3,0.8-0.7,1.4-1.3,2c-0.5,0.5-1.2,1-1.9,1.2
			c-0.7,0.3-1.4,0.4-2.2,0.4c-0.8,0-1.5-0.1-2.2-0.4c-0.7-0.3-1.3-0.7-1.8-1.2c-0.5-0.5-1-1.2-1.3-2c-0.3-0.8-0.5-1.7-0.5-2.7
			c0-1,0.2-1.9,0.5-2.7c0.3-0.8,0.7-1.4,1.3-2c0.5-0.5,1.2-1,1.8-1.2c0.7-0.3,1.4-0.4,2.2-0.4c0.7,0,1.5,0.1,2.2,0.4
			c0.7,0.3,1.3,0.7,1.9,1.2c0.5,0.5,1,1.2,1.3,2c0.3,0.8,0.5,1.7,0.5,2.7C-244,270.8-244.1,271.7-244.5,272.4z M-215.8,260.6
			c-0.7-0.8-1.5-1.5-2.6-1.9c-1.1-0.5-2.3-0.7-3.6-0.7c-1.5,0-2.8,0.3-4,1c-1.2,0.6-2.1,1.5-2.8,2.6h-0.4v-2.9h-5.5v22h5.9V270
			c0-0.9,0.1-1.7,0.3-2.5c0.2-0.8,0.6-1.5,1-2.1c0.4-0.6,1-1,1.6-1.4c0.6-0.3,1.3-0.5,2.1-0.5c1.3,0,2.4,0.4,3.1,1.1
			c0.7,0.8,1.1,1.9,1.1,3.5v12.6h5.9v-13.4c0-1.4-0.2-2.7-0.5-3.8C-214.7,262.4-215.2,261.5-215.8,260.6z M-188.4,265
			c-0.5-1.4-1.2-2.6-2.1-3.7c-0.9-1-2.1-1.8-3.5-2.4c-1.4-0.6-3-0.9-4.7-0.9c-1.7,0-3.2,0.3-4.6,0.9c-1.4,0.6-2.6,1.5-3.6,2.5
			c-1,1.1-1.8,2.3-2.4,3.7c-0.6,1.4-0.9,2.9-0.9,4.5c0,1.7,0.3,3.3,0.9,4.7c0.6,1.4,1.4,2.7,2.5,3.7c1,1.1,2.3,1.9,3.7,2.5
			c1.4,0.6,3,0.9,4.7,0.9c2.5,0,4.6-0.6,6.3-1.7c1.7-1.1,3.1-2.6,4.1-4.4l-4.9-2.4c-0.5,0.9-1.2,1.7-2.1,2.3c-0.9,0.6-2,0.9-3.4,0.9
			c-0.7,0-1.4-0.1-2-0.3c-0.7-0.2-1.3-0.5-1.8-0.9c-0.6-0.4-1-1-1.4-1.6c-0.4-0.6-0.6-1.4-0.7-2.3h16.6c0-0.2,0-0.3,0-0.5
			c0-0.1,0-0.3,0-0.5c0-0.1,0-0.3,0-0.5C-187.7,268-187.9,266.4-188.4,265z M-204.1,267c0.4-1.3,1.1-2.3,2-3c1-0.7,2.1-1.1,3.3-1.1
			c0.9,0,1.7,0.1,2.3,0.4c0.6,0.3,1.2,0.6,1.6,1c0.4,0.4,0.8,0.9,1,1.4c0.2,0.5,0.4,0.9,0.4,1.3H-204.1z"/>
	</g>
</g>
<g>
	<g>
		<path fill="#b2b2b2" d="M-374.8,301l0.1,1.2h-0.1c-0.3-0.5-0.7-0.8-1.2-1.1c-0.5-0.3-1.1-0.4-1.8-0.4c-1.2,0-2.1,0.5-3,1.4
			c-0.8,0.9-1.2,2-1.2,3.3s0.4,2.4,1.2,3.3c0.8,0.9,1.8,1.4,3,1.4c0.6,0,1.2-0.1,1.8-0.4c0.5-0.3,0.9-0.6,1.2-1.1h0.1v1.2h1.6v-12.9
			h-1.7V301z M-375.5,307.7c-0.5,0.6-1.2,0.9-2,0.9c-0.8,0-1.5-0.3-2-0.9c-0.5-0.6-0.8-1.4-0.8-2.3c0-0.9,0.3-1.7,0.8-2.3
			c0.5-0.6,1.2-0.9,2-0.9c0.8,0,1.5,0.3,2,0.9c0.5,0.6,0.8,1.4,0.8,2.3C-374.7,306.4-375,307.1-375.5,307.7z M-367.4,300.7
			c-1.3,0-2.3,0.4-3.1,1.3c-0.8,0.9-1.2,2-1.2,3.4c0,1.4,0.4,2.5,1.3,3.4c0.8,0.9,1.9,1.3,3.2,1.3c0.9,0,1.7-0.2,2.4-0.6
			c0.7-0.4,1.3-1,1.6-1.7l-1.5-0.7c-0.6,1.1-1.4,1.6-2.5,1.6c-0.8,0-1.4-0.3-2-0.8c-0.6-0.5-0.8-1.2-0.9-2.1h6.9l0-0.2
			c0-1.5-0.4-2.7-1.2-3.6C-365,301.1-366.1,300.7-367.4,300.7z M-369.9,304.4c0.1-0.6,0.4-1.2,0.9-1.5c0.5-0.4,1-0.6,1.6-0.6
			c0.8,0,1.4,0.2,1.8,0.6c0.5,0.4,0.7,0.9,0.7,1.5H-369.9z M-357.4,304.7l-1.3-0.3c-0.9-0.2-1.4-0.6-1.4-1.1c0-0.3,0.2-0.6,0.5-0.8
			s0.7-0.3,1.2-0.3c0.5,0,0.9,0.1,1.3,0.3c0.4,0.2,0.7,0.5,0.8,0.9l1.5-0.6c-0.3-0.6-0.7-1.1-1.3-1.5c-0.6-0.4-1.3-0.6-2.1-0.6
			c-1,0-1.9,0.2-2.5,0.7c-0.7,0.5-1,1.1-1,1.9c0,1.2,0.9,2.1,2.6,2.5l1.5,0.4c0.9,0.3,1.3,0.7,1.3,1.2c0,0.3-0.2,0.6-0.5,0.8
			c-0.4,0.2-0.8,0.3-1.3,0.3c-0.5,0-0.9-0.1-1.4-0.4c-0.4-0.3-0.7-0.7-0.9-1.2l-1.5,0.6c0.3,0.8,0.8,1.4,1.4,1.8
			c0.7,0.5,1.5,0.7,2.3,0.7c1,0,1.9-0.3,2.5-0.8c0.7-0.5,1-1.2,1-1.9C-354.7,306-355.6,305.2-357.4,304.7z M-353.2,309.8h1.7V301
			h-1.7V309.8z M-352.4,296.8c-0.3,0-0.6,0.1-0.8,0.3c-0.2,0.2-0.3,0.5-0.3,0.8c0,0.3,0.1,0.6,0.3,0.8c0.2,0.2,0.5,0.3,0.8,0.3
			c0.3,0,0.6-0.1,0.8-0.3c0.2-0.2,0.3-0.5,0.3-0.8c0-0.3-0.1-0.6-0.3-0.8C-351.8,296.9-352.1,296.8-352.4,296.8z M-342.7,302.2
			L-342.7,302.2c-0.4-0.5-0.8-0.8-1.3-1.1c-0.5-0.3-1.1-0.4-1.7-0.4c-1.2,0-2.1,0.5-3,1.4c-0.8,0.9-1.2,2-1.2,3.3
			c0,1.3,0.4,2.4,1.2,3.3c0.8,0.9,1.8,1.3,3,1.3c0.6,0,1.2-0.1,1.7-0.4c0.5-0.3,1-0.6,1.3-1.1h0.1v0.8c0,0.9-0.3,1.7-0.8,2.2
			c-0.5,0.5-1.2,0.8-2.1,0.8c-0.6,0-1.1-0.2-1.5-0.5c-0.4-0.3-0.8-0.7-0.9-1.2l-1.6,0.6c0.1,0.4,0.3,0.7,0.6,1
			c0.3,0.3,0.6,0.6,0.9,0.8c0.4,0.2,0.7,0.4,1.2,0.5c0.4,0.1,0.9,0.2,1.4,0.2c1.3,0,2.4-0.4,3.2-1.2c0.8-0.8,1.2-1.9,1.2-3.3V301
			h-1.6V302.2z M-343.6,307.7c-0.5,0.6-1.2,0.9-2,0.9c-0.8,0-1.5-0.3-2-0.9c-0.5-0.6-0.8-1.4-0.8-2.3c0-0.9,0.3-1.7,0.8-2.3
			c0.5-0.6,1.2-0.9,2-0.9c0.8,0,1.5,0.3,2,0.9c0.5,0.6,0.8,1.4,0.8,2.3C-342.7,306.4-343,307.1-343.6,307.7z M-334.7,300.7
			c-0.6,0-1.1,0.1-1.6,0.4c-0.5,0.3-0.9,0.6-1.2,1.1h-0.1V301h-1.6v8.8h1.7v-4.9c0-0.7,0.2-1.4,0.7-1.9c0.4-0.5,1-0.8,1.7-0.8
			c1.4,0,2.1,0.7,2.2,2.2v5.4h1.7v-5.5c0-1.1-0.3-2-0.9-2.6C-332.8,301-333.6,300.7-334.7,300.7z M-321.3,304.7l-1.3-0.3
			c-0.9-0.2-1.4-0.6-1.4-1.1c0-0.3,0.2-0.6,0.5-0.8c0.3-0.2,0.7-0.3,1.2-0.3c0.5,0,0.9,0.1,1.3,0.3c0.4,0.2,0.7,0.5,0.8,0.9l1.5-0.6
			c-0.3-0.6-0.7-1.1-1.3-1.5c-0.6-0.4-1.3-0.6-2.1-0.6c-1,0-1.9,0.2-2.5,0.7c-0.7,0.5-1,1.1-1,1.9c0,1.2,0.9,2.1,2.6,2.5l1.5,0.4
			c0.9,0.3,1.3,0.7,1.3,1.2c0,0.3-0.2,0.6-0.5,0.8c-0.4,0.2-0.8,0.3-1.3,0.3c-0.5,0-0.9-0.1-1.4-0.4c-0.4-0.3-0.7-0.7-0.9-1.2
			l-1.5,0.6c0.3,0.8,0.8,1.4,1.4,1.8c0.7,0.5,1.5,0.7,2.3,0.7c1,0,1.9-0.3,2.5-0.8c0.7-0.5,1-1.2,1-1.9
			C-318.7,306-319.6,305.2-321.3,304.7z M-313.2,308.4c-0.1,0-0.3,0-0.4,0c-0.3,0-0.5-0.1-0.8-0.3c-0.2-0.2-0.3-0.6-0.3-1.2v-4.4
			h2.2V301h-2.2v-2.7h-1.7v2.7h-1.5v1.5h1.5v4.9c0,0.8,0.3,1.4,0.7,1.9c0.5,0.4,1.1,0.7,1.8,0.7c0.6,0,1.1-0.1,1.5-0.2l-0.5-1.5
			C-313,308.3-313.1,308.3-313.2,308.4z M-304.9,305.9c0,0.7-0.2,1.4-0.7,1.9c-0.4,0.5-1,0.8-1.7,0.8c-1.4,0-2.1-0.7-2.2-2.2V301
			h-1.7v5.5c0,1.1,0.3,2,0.9,2.6c0.6,0.6,1.4,0.9,2.5,0.9c0.6,0,1.1-0.1,1.6-0.4c0.5-0.3,0.9-0.6,1.2-1.1h0.1v1.2h1.6V301h-1.7
			V305.9z M-294.6,301l0.1,1.2h-0.1c-0.3-0.5-0.7-0.8-1.2-1.1c-0.5-0.3-1.1-0.4-1.8-0.4c-1.2,0-2.1,0.5-3,1.4
			c-0.8,0.9-1.2,2-1.2,3.3s0.4,2.4,1.2,3.3c0.8,0.9,1.8,1.4,3,1.4c0.6,0,1.2-0.1,1.8-0.4c0.5-0.3,0.9-0.6,1.2-1.1h0.1v1.2h1.6v-12.9
			h-1.7V301z M-295.3,307.7c-0.5,0.6-1.2,0.9-2,0.9c-0.8,0-1.5-0.3-2-0.9c-0.5-0.6-0.8-1.4-0.8-2.3c0-0.9,0.3-1.7,0.8-2.3
			c0.5-0.6,1.2-0.9,2-0.9c0.8,0,1.5,0.3,2,0.9c0.5,0.6,0.8,1.4,0.8,2.3C-294.5,306.4-294.8,307.1-295.3,307.7z M-289.9,296.8
			c-0.3,0-0.6,0.1-0.8,0.3c-0.2,0.2-0.3,0.5-0.3,0.8c0,0.3,0.1,0.6,0.3,0.8c0.2,0.2,0.5,0.3,0.8,0.3s0.6-0.1,0.8-0.3
			c0.2-0.2,0.3-0.5,0.3-0.8c0-0.3-0.1-0.6-0.3-0.8C-289.3,296.9-289.6,296.8-289.9,296.8z M-290.8,309.8h1.7V301h-1.7V309.8z
			 M-279.8,302c-0.9-0.9-1.9-1.3-3.2-1.3c-1.3,0-2.4,0.4-3.3,1.3c-0.9,0.9-1.3,2-1.3,3.4c0,1.4,0.4,2.5,1.3,3.4
			c0.9,0.9,1.9,1.3,3.3,1.3c1.3,0,2.4-0.4,3.2-1.3c0.9-0.9,1.3-2,1.3-3.4C-278.5,304.1-278.9,302.9-279.8,302z M-281,307.7
			c-0.6,0.6-1.2,0.9-2.1,0.9c-0.8,0-1.5-0.3-2.1-0.9c-0.6-0.6-0.8-1.4-0.8-2.3c0-0.9,0.3-1.7,0.8-2.3c0.6-0.6,1.2-0.9,2.1-0.9
			c0.8,0,1.5,0.3,2.1,0.9c0.6,0.6,0.8,1.4,0.8,2.3C-280.1,306.4-280.4,307.1-281,307.7z"/>
	</g>
</g>
</svg>
